<svg width="282" height="265" viewBox="0 0 282 265" fill="none" xmlns="http://www.w3.org/2000/svg">
<path fill-rule="evenodd" clip-rule="evenodd" d="M103.449 264.25H149.442C156.462 264.25 160.779 256.572 157.132 250.574L144.881 230.428C144.053 229.066 145.072 227.316 146.666 227.318C156.476 227.329 172.583 226.161 179.949 221.25L251.949 257.75C269.949 266.25 289.949 244.25 277.449 231.25L222.206 170.036C222.04 169.852 221.949 169.624 221.948 169.377C221.811 143.875 207.675 88.7544 151.949 69.25C132.449 64.75 92.9487 73.45 94.9487 112.25C96.9175 150.445 159.774 174.653 192.419 182.394C193.327 182.61 193.949 183.412 193.949 184.345V191.918C193.949 193.144 192.881 194.086 191.672 193.883C153.186 187.415 80.9881 162.187 82.9487 109.25C82.9487 94.4093 94.6952 62.4382 125.936 61.7609C126.488 61.749 126.949 61.3155 126.944 60.7633C126.754 39.5236 120.246 0.75 75.4487 0.75C58.4487 0.75 32.9487 4.65 24.9487 34.25L10.2703 34.8371C1.5597 35.1856 -2.56534 45.736 3.5989 51.9002L22.6354 70.9367C22.8349 71.1362 22.9398 71.406 22.932 71.6881C22.7427 78.5334 25.6143 92.0246 38.5846 95.5345C39.0725 95.6666 39.411 96.107 39.3639 96.6103C36.3201 129.151 48.084 198.255 119.449 221.25L132.449 244.25H103.449C97.9259 244.25 93.4487 248.727 93.4487 254.25C93.4487 259.773 97.9259 264.25 103.449 264.25ZM67.4487 57.75C72.9716 57.75 77.4487 53.2728 77.4487 47.75C77.4487 42.2272 72.9716 37.75 67.4487 37.75C61.9259 37.75 57.4487 42.2272 57.4487 47.75C57.4487 53.2728 61.9259 57.75 67.4487 57.75Z" fill="#FCA0C5"/>
</svg>
