<svg width="279" height="300" viewBox="0 0 279 300" fill="none" xmlns="http://www.w3.org/2000/svg">
<path fill-rule="evenodd" clip-rule="evenodd" d="M84.5745 265.662C87.5354 277.835 102.932 301.686 140.831 299.712C156.294 300.699 188.896 295.271 195.608 265.662C194.785 242.304 198.47 191.837 219.788 176.835C236.238 184.402 269.729 190.456 272.097 154.135C274.453 118.017 245.446 120.224 230.403 125.911C261.155 114.086 317.276 56.5678 238.565 3.09991C232.77 -0.83619 225.479 6.04391 227.677 12.6953C235.882 37.5353 235.371 67.7773 192.153 72.2175C175.046 57.5776 130.073 37.0817 87.0419 72.2175C65.2387 71.2515 32.9238 58.5006 49.1836 17.5907C53.625 6.41605 45.8958 -4.72989 35.9862 2.08181C-1.71799 27.999 -26.3338 91.3067 49.0439 125.02C32.2656 122.388 0.386727 125.316 7.09807 158.083C13.8094 190.85 45.7541 184.238 60.8875 176.835C68.7832 189.173 84.5745 224.21 84.5745 265.662ZM176.362 175.355C183.176 175.355 188.699 170.936 188.699 165.485C188.699 160.035 183.176 155.616 176.362 155.616C169.548 155.616 164.025 160.035 164.025 165.485C164.025 170.936 169.548 175.355 176.362 175.355ZM115.664 165.485C115.664 170.936 110.14 175.355 103.327 175.355C96.5133 175.355 90.9898 170.936 90.9898 165.485C90.9898 160.035 96.5133 155.616 103.327 155.616C110.14 155.616 115.664 160.035 115.664 165.485ZM209.383 88.8005C213.013 93.2401 218.01 100.245 219.732 105.772C220.117 107.007 221.439 107.816 222.633 107.32C241.09 99.647 269.71 77.6202 256.14 41.6089C255.733 40.5275 253.567 40.9925 253.427 42.1395C251.902 54.5862 241.734 73.6352 210.272 85.5042C208.94 86.0066 208.482 87.6986 209.383 88.8005ZM58.8819 105.772C60.604 100.245 65.6011 93.2401 69.2314 88.8005C70.1325 87.6986 69.6742 86.0066 68.3424 85.5042C36.88 73.6352 26.7118 54.5862 25.1871 42.1395C25.0465 40.9925 22.8815 40.5275 22.474 41.6089C8.90416 77.6202 37.524 99.647 55.9809 107.32C57.1749 107.816 58.4974 107.007 58.8819 105.772ZM138.364 229.638C173.401 229.638 174.882 247.403 174.882 261.221C173.73 263.853 170.243 267.537 165.505 261.221C161.02 259.21 152.23 259.148 150.868 273.587C150.715 275.211 149.399 276.519 147.768 276.519H130.729C128.988 276.519 127.625 275.039 127.522 273.301C127.109 266.349 123.733 257.493 112.209 261.221C110.729 263.853 106.979 267.537 103.82 261.221C101.846 250.693 105.992 229.638 138.364 229.638Z" fill="#FCA0C5"/>
</svg>
