<svg width="253" height="254" viewBox="0 0 253 254" fill="none" xmlns="http://www.w3.org/2000/svg">
<path fill-rule="evenodd" clip-rule="evenodd" d="M191.226 144.755C165.46 142.066 118.866 126.212 115.639 81.1643C115.531 79.6559 114.386 78.3913 112.876 78.3107C92.8064 77.2389 51.7338 83.1087 26.3241 113.988C25.0845 115.495 22.5 114.654 22.5 112.703V82C22.921 65.4406 35.749 31.7476 82.4745 18.5295C92.9604 15.5632 95.5817 3.24416 84.8192 1.53518C58.4341 -2.65451 23.9012 9.77192 2.90051 71.0808C1.23237 75.9507 0.5 81.1167 0.5 86.2645V197.5C0.5 216.5 23.5 254 72.5 254H146C147.657 254 149.015 252.66 148.903 251.007C148.311 242.292 144.474 228.962 123.598 228.512C123.015 228.499 122.539 228.018 122.578 227.436C124.082 204.85 117.959 163.253 69.3465 160.18C66.1326 159.977 63.5 157.389 63.5 154.169C63.5 151.219 65.6998 148.711 68.6468 148.581C94.4836 147.443 136.996 159.424 135.5 218.5C144.309 218.98 161.397 226.202 162.009 250.901C162.051 252.591 163.398 254 165.09 254H244C246.333 253.167 251.3 248.2 252.5 235C253.7 221.8 239.333 210.5 232 206.5C219.75 198.119 195.654 174.992 194.081 147.791C193.99 146.221 192.791 144.918 191.226 144.755ZM248 66.9999V16.4999C248 10.9999 245.1 0.199928 233.5 0.999928C222.003 1.79284 208.574 19.3514 203.144 28.2631C197.493 27.7127 191.56 27.4999 185.5 27.4999C181.039 27.4999 176.736 27.6153 172.631 27.8958C167.063 18.8782 153.841 1.7821 142.5 0.999937C130.9 0.199937 128 10.9999 128 16.4999V66.9999V67.0001C128 100.137 154.863 127 188 127C221.137 127 248 100.137 248 67.0001V66.9999ZM212 73.9999C217.523 73.9999 222 69.5228 222 63.9999C222 58.4771 217.523 53.9999 212 53.9999C206.477 53.9999 202 58.4771 202 63.9999C202 69.5228 206.477 73.9999 212 73.9999ZM175 63.9999C175 69.5228 170.523 73.9999 165 73.9999C159.477 73.9999 155 69.5228 155 63.9999C155 58.4771 159.477 53.9999 165 53.9999C170.523 53.9999 175 58.4771 175 63.9999Z" fill="#FCA0C5"/>
</svg>
