<svg width="260" height="281" viewBox="0 0 260 281" fill="none" xmlns="http://www.w3.org/2000/svg">
<path fill-rule="evenodd" clip-rule="evenodd" d="M165.413 33.5292C175.993 22.5222 198.577 10.0165 224.663 28.074C225.853 28.8978 227.313 29.3918 228.706 28.9977C232.771 27.8474 237.051 24.1476 232 15.3927C226.655 6.12869 217.476 6.22766 212.236 7.77342C211.235 8.06849 210.135 7.67671 209.557 6.80861C205.728 1.05824 197.119 -4.97261 186.143 6.55458C185.27 7.47169 183.766 7.45854 182.877 6.55604C177.193 0.781173 166.206 -4.31341 153.5 8.39272C145.862 16.0303 151.668 28.949 158.693 34.6205C160.751 36.2815 163.58 35.4355 165.413 33.5292ZM94 160.441V144.441C94 138.442 89 124.941 72.5 124.941C61.8374 124.941 56.3572 127.974 53.8374 130.935C52.716 132.253 51.6832 132.217 51.4188 130.507C50.18 122.494 45.686 106.442 26 106.442C15.5001 106.442 9.39518e-06 111.942 0 130.942V182.942C0 213.942 31.5001 280.942 112 280.942C145.959 280.942 172.293 269.844 191.526 254.239C193.587 242.184 193.76 225.407 189.194 212.223C184.658 199.13 175.516 188.399 158.215 185.38C155.468 184.901 153.611 182.181 154.069 179.305C154.527 176.429 157.126 174.486 159.874 174.965C181.309 178.705 193.1 192.522 198.677 208.624C202.648 220.088 203.5 232.7 202.757 243.821C222.568 222.847 232 197.248 232 178.942V107.28C232 106.744 232.215 106.23 232.597 105.854L256.048 82.7816C260.098 78.7969 260.724 72.4072 256.018 69.2249C251.04 65.8596 243.721 62.8807 234.097 62.8927C232.957 62.8942 232.004 61.9919 231.914 60.8552C231.104 50.531 224.284 31.3927 200.5 31.3927C165 31.3927 163.5 62.3927 163.5 87.3927C163.5 112.094 151.492 161.249 96.03 162.419C94.9257 162.443 94 161.545 94 160.441ZM198 82.8927C203.523 82.8927 208 78.4155 208 72.8927C208 67.3699 203.523 62.8927 198 62.8927C192.477 62.8927 188 67.3699 188 72.8927C188 78.4155 192.477 82.8927 198 82.8927Z" fill="#FCA0C5"/>
</svg>
