<svg width="297" height="277" viewBox="0 0 297 277" fill="none" xmlns="http://www.w3.org/2000/svg">
<path fill-rule="evenodd" clip-rule="evenodd" d="M100.401 230.812V253.098C100.401 261.598 104.301 276.598 123.901 276.598H175.901C192.901 276.598 199.401 267.098 199.401 253.098V227.227C199.401 225.517 199.939 223.872 200.95 222.492C215.421 202.738 254.249 146.854 243.426 95.906C243.169 94.6966 244.007 93.5178 245.235 93.3798C265.256 91.131 312.528 76.8129 291.401 33.598C286.341 23.2495 246.864 19.3119 218.155 54.0471C217.457 54.8916 216.203 55.0589 215.336 54.389L207.639 48.4409C206.706 47.7204 206.589 46.3628 207.378 45.4876C217.024 34.7868 231.933 14.5149 221.898 2.75075C216.291 -3.82392 207.372 2.40098 205.209 10.7671C202.792 20.1126 198.205 30.0157 186.548 33.4178C186.135 33.5383 185.698 33.5156 185.296 33.36C171.778 28.1151 140.454 21.165 117.284 33.1305C116.725 33.4189 116.066 33.4543 115.517 33.1495C111.274 30.7966 104.684 24.3877 100.702 12.5737C97.5515 3.22506 87.2077 -4.42549 81.8478 3.85685C76.8868 11.5228 77.5044 23.9281 94.0422 42.5902C94.7736 43.4155 94.7438 44.7023 93.9323 45.4489L84.3031 54.3077C83.5179 55.0301 82.3083 55.0108 81.5339 54.2767C68.122 41.5638 38.5323 20.486 16.9006 28.5979C-10.7784 38.9776 -8.16406 86.0023 52.7576 93.3581C53.8994 93.496 54.7455 94.5432 54.5927 95.6832C51.1796 121.146 55.4982 178.924 98.1895 225.245C99.5875 226.762 100.401 228.75 100.401 230.812ZM120.401 234.426V242.598C120.401 251.435 127.564 258.598 136.401 258.598H163.901C172.737 258.598 179.901 251.435 179.901 242.598V233.972C179.901 231.247 178.526 228.681 176.161 227.326C159.485 217.774 145.104 217.605 124.713 227.422C122.037 228.71 120.401 231.457 120.401 234.426ZM103.325 189.475C113.48 161.131 126.276 104.506 110.299 64.0322C109.31 61.5283 106.432 60.4119 104.092 61.743C91.9548 68.6477 73.7553 85.8711 73.4006 114.598C73.0404 143.782 88.3387 174.615 98.3219 190.071C99.6084 192.063 102.526 191.708 103.325 189.475ZM95.4007 121.098C100.371 121.098 104.401 117.069 104.401 112.098C104.401 107.127 100.371 103.098 95.4007 103.098C90.4301 103.098 86.4007 107.127 86.4007 112.098C86.4007 117.069 90.4301 121.098 95.4007 121.098ZM188.954 64.0322C172.976 104.506 185.773 161.131 195.927 189.475C196.727 191.708 199.644 192.063 200.931 190.071C210.914 174.615 226.212 143.782 225.852 114.598C225.497 85.8711 207.298 68.6477 195.16 61.743C192.82 60.4119 189.942 61.5283 188.954 64.0322ZM194.852 112.098C194.852 117.069 198.881 121.098 203.852 121.098C208.822 121.098 212.852 117.069 212.852 112.098C212.852 107.127 208.822 103.098 203.852 103.098C198.881 103.098 194.852 107.127 194.852 112.098Z" fill="#FCA0C5"/>
</svg>
