<svg width="281" height="259" viewBox="0 0 281 259" fill="none" xmlns="http://www.w3.org/2000/svg">
<path d="M116.519 94.3344C33.6275 130.798 48.3288 202.559 70.4146 234.459C71.3273 235.777 70.4261 237.627 68.8233 237.669C28.932 238.709 18.098 215.307 15.4825 193.172C14.4378 184.33 4.50824 181.51 2.17491 190.102C-8.70013 230.148 23.3584 258.5 50.6345 258.5H182.134C183.791 258.5 185.149 257.143 185.023 255.491C183.665 237.729 170.265 233.098 161.805 232.939C160.634 232.917 159.642 231.956 159.632 230.785C159.151 175.621 127.496 163.935 106.377 165.06C102.614 165.26 99.1344 162.449 99.1344 158.681C99.1344 155.506 101.649 152.878 104.825 152.882C164.677 152.952 174.643 195.926 171.913 219.9C171.782 221.044 172.606 222.081 173.743 222.264C192.238 225.228 197.857 243.907 198.56 255.463C198.661 257.134 200.005 258.5 201.679 258.5H258.634C265.814 258.5 271.634 252.68 271.634 245.5V228.27C271.634 224.436 269.419 220.954 266.024 219.172C220.715 195.399 204.634 163.439 204.634 149.5C204.634 136.5 210.634 107.5 234.634 100.5C279.298 87.4732 280.634 78.5 280.634 55.5C280.634 35.7982 265.134 21 255.134 21H238.388C236.092 21 234.028 19.6698 232.864 17.6908C223.747 2.19493 209.721 -4.70178e-05 196.134 0C152.38 0 141.329 54.0373 141.12 83.6481C141.108 85.4166 142.093 87.0696 143.682 87.8456C169.393 100.401 185.813 77.0585 195.102 54.8938C196.844 50.7371 202.977 51.6907 202.507 56.1732C196.556 112.93 147.381 106.342 122.599 94.5022C120.696 93.5933 118.449 93.4855 116.519 94.3344Z" fill="#FCA0C5"/>
</svg>
