<svg width="270" height="289" viewBox="0 0 270 289" fill="none" xmlns="http://www.w3.org/2000/svg">
<path fill-rule="evenodd" clip-rule="evenodd" d="M125.329 289H185.653C191.452 289 196.153 284.299 196.153 278.5C196.153 272.701 191.452 268 185.653 268H147.412C145.92 268 144.953 266.425 145.629 265.094L159.157 238.461C159.777 237.24 160.967 236.427 162.327 236.269C190.779 232.948 243.653 215.611 243.653 170C243.653 143.404 216.061 99.9735 202.94 85.8387C202.106 84.9411 201.39 83.906 201.24 82.6904C200.229 74.5011 209.636 61.1289 255.653 61.5C260.32 60.8334 269.653 56 269.653 42C269.653 30.2806 263.113 26.1525 258.244 25.2164C256.549 24.8903 254.837 25.3321 253.178 25.81C247.498 27.446 237.889 28.892 229.916 25.9733C228.433 25.4305 227.394 24.1551 226.742 22.7172C222.773 13.9616 211.253 0 189.653 0C176.82 0.5 151.153 7.7 151.153 32.5C150.986 39.5 152.512 50 157.653 65C169.734 100.251 156.54 166.562 16.1466 155.741C14.4049 155.607 12.5896 156.628 12.6795 158.372C13.1124 166.778 27.8439 176.973 35.1529 181C23.0429 179.036 9.88395 183.411 2.03097 187.166C-0.271962 188.267 -0.682828 191.258 1.1401 193.044C45.5448 236.572 110.889 241.585 138.653 238.5L119.031 278.945C116.776 283.594 120.162 289 125.329 289ZM192.153 44C197.676 44 202.153 39.5228 202.153 34C202.153 28.4772 197.676 24 192.153 24C186.63 24 182.153 28.4772 182.153 34C182.153 39.5228 186.63 44 192.153 44Z" fill="#FCA0C5"/>
</svg>
