<svg width="300" height="300" viewBox="0 0 300 300" fill="none" xmlns="http://www.w3.org/2000/svg">
<path fill-rule="evenodd" clip-rule="evenodd" d="M91.6935 73.7304C111.565 50.3499 162.807 18.1001 231.474 52.1007C232.9 52.8066 234.573 51.7046 234.284 50.1401C231.158 33.2154 216.839 4.45136 178.742 0.875858C142.64 -3.31434 75.1642 5.47977 88.1285 72.8171C88.4493 74.4835 90.5945 75.0235 91.6935 73.7304ZM213.894 233.375C213.913 233.405 213.95 233.42 213.985 233.411C265.242 221.225 292.475 172.75 299.687 150.027C299.689 150.022 299.69 150.017 299.691 150.011C302.167 133.615 290.763 95.6299 228.997 66.6634C226.667 65.5706 223.867 66.1159 222.21 68.0842C204.623 88.9621 193.16 120.785 193.16 156.434C193.16 186.097 201.097 213.111 213.894 233.375ZM213.985 60.2126C214.566 60.4414 214.718 61.192 214.276 61.6333C193.82 82.0438 180.344 116.884 180.344 156.434C180.344 183.378 186.598 208.136 197.053 227.635C199.125 231.499 196.871 236.407 192.5 236.749C154.964 239.681 99.721 230.256 73.8916 176.642C73.8566 176.569 73.7589 176.551 73.7093 176.615C62.8653 190.531 35.9391 213.374 7.00372 205.974C1.05507 204.452 -1.40818 197.789 0.79392 192.057L16.9302 150.057C16.9396 150.033 16.9398 150.006 16.9309 149.981L1.81158 108.207C-0.735672 101.169 3.7447 93.5835 11.2295 93.5661C30.4337 93.5213 56.7209 98.8809 69.7078 120.184C69.7519 120.256 69.8568 120.26 69.8961 120.184C86.8095 87.8136 139.142 30.7553 213.985 60.2126ZM105.97 230.943C117.686 240.917 147.516 255.998 192.826 252.11C194.174 251.994 195.279 253.196 194.921 254.501C190.292 271.39 173.016 298.139 132.285 299.965C96.7289 301.559 99.5364 248.768 102.694 231.942C102.977 230.431 104.8 229.946 105.97 230.943ZM254.034 135.586C254.034 141.786 249.013 146.812 242.82 146.812C236.627 146.812 231.607 141.786 231.607 135.586C231.607 129.386 236.627 124.36 242.82 124.36C249.013 124.36 254.034 129.386 254.034 135.586Z" fill="#FCA0C5"/>
</svg>
