<svg width="296" height="287" viewBox="0 0 296 287" fill="none" xmlns="http://www.w3.org/2000/svg">
<path fill-rule="evenodd" clip-rule="evenodd" d="M141.671 48.9999H152.171C161.671 29.4999 188.925 0.999886 226.671 0.999886C288.302 0.999886 321.677 80.1174 271.2 182.102C265.461 193.696 251.357 187.902 253.814 175.202C263.712 124.026 269.31 66.4202 233.671 62.4999C222.671 62.4999 203.671 66.5999 203.671 82.9999C204.004 87.8332 207.371 97.0999 218.171 95.4999C228.171 89.6666 248.371 83.1999 249.171 104C249.862 121.966 234.19 139.484 223.032 148.757C219.936 151.331 217.267 154.409 215.632 158.088C209.621 171.615 200.865 193.292 200.171 203V244C200.171 260.5 185.671 287 147.171 287C107.171 287 91.6711 262 91.6711 244V203C91.2711 191 79.8378 164.333 74.1711 152.5C67.6711 151.167 52.4711 141.9 43.6711 115.5C34.8711 89.1 52.0045 88.5 61.6711 91.5C65.8378 95.6666 76.2711 100.5 84.6711 86.5C93.0711 72.5001 74.8378 64.6666 64.6711 62.4999C27.1135 62.4999 28.839 123.462 39.028 178.556C40.7269 187.743 28.2295 192.627 24.311 184.146C-33.8227 58.3272 24.9196 6.75259 69.1711 0.999886C109.171 -4.20011 134.171 30.8332 141.671 48.9999ZM175.671 154C181.194 154 185.671 149.523 185.671 144C185.671 138.477 181.194 134 175.671 134C170.148 134 165.671 138.477 165.671 144C165.671 149.523 170.148 154 175.671 154ZM122.671 144C122.671 149.523 118.194 154 112.671 154C107.148 154 102.671 149.523 102.671 144C102.671 138.477 107.148 134 112.671 134C118.194 134 122.671 138.477 122.671 144ZM159.415 228.186C160.244 230.188 160.671 232.333 160.671 234.5H144.171H127.671C127.671 232.333 128.098 230.188 128.927 228.186C129.756 226.184 130.972 224.365 132.504 222.833C134.036 221.301 135.855 220.085 137.857 219.256C139.859 218.427 142.004 218 144.171 218C146.338 218 148.484 218.427 150.485 219.256C152.487 220.085 154.306 221.301 155.838 222.833C157.371 224.365 158.586 226.184 159.415 228.186Z" fill="#FCA0C5"/>
</svg>
