<svg width="295" height="272" viewBox="0 0 295 272" fill="none" xmlns="http://www.w3.org/2000/svg">
<path fill-rule="evenodd" clip-rule="evenodd" d="M6.08255 271.737C-2.73682 271.737 -1.26632 232.537 6.08284 232.537C6.08284 0.576473 172.631 0.730428 211.061 0.76595C211.516 0.766371 211.954 0.766775 212.373 0.766776V48.003C212.373 48.7776 212.832 49.4771 213.532 49.8102C240.351 62.586 253.32 98.8222 256.744 116.689C256.885 117.423 257.427 118.008 258.141 118.232C284.284 126.422 293.405 150.053 294.693 160.997C294.693 173.573 288.225 199.707 262.353 203.627C237.625 207.373 223.759 192.32 219.301 183.28C218.943 182.554 218.191 182.087 217.382 182.104C179.951 182.903 161.287 164.569 153.969 150.038C152.157 146.44 147.021 145.592 146.516 149.589C144.884 162.49 160.701 175.88 171.699 182.652C172.538 183.168 172.881 184.211 172.541 185.136C167.733 198.232 168.312 219.033 169.253 228.127C181.231 252.831 177.482 266.694 173.706 271.166C173.38 271.552 172.891 271.737 172.385 271.737H6.08255ZM216.293 97.7867C216.293 103.199 211.906 107.587 206.493 107.587C201.081 107.587 196.693 103.199 196.693 97.7867C196.693 92.3743 201.081 87.9867 206.493 87.9867C211.906 87.9867 216.293 92.3743 216.293 97.7867ZM41.8768 123.197C56.5595 85.2635 95.1478 31.8156 171.958 20.5589C173.741 20.2978 174.901 22.4015 173.751 23.7876C170.231 28.0298 165.972 33.5476 164.306 36.9776C164.002 37.6043 163.469 38.0767 162.785 38.2094C134.639 43.6702 76.8649 67.9273 44.9531 124.378C43.7838 126.446 41.0192 125.413 41.8768 123.197Z" fill="#FCA0C5"/>
</svg>
