<svg width="269" height="238" viewBox="0 0 269 238" fill="none" xmlns="http://www.w3.org/2000/svg">
<path fill-rule="evenodd" clip-rule="evenodd" d="M79.264 182.473C87.0038 189.893 107.893 200.72 146.312 199.447C146.722 199.434 147.103 199.659 147.272 200.032C153.678 214.195 171.315 240.577 193 237.423C214.58 234.284 204.088 196.252 195.499 177.497C195.24 176.93 195.537 176.279 196.139 176.116C221.303 169.276 269 153.434 269 121.423C269 112.423 260.2 99.9231 237 99.9231C235 90.5898 228.7 70.4231 219.5 64.4231V3.92313C219.5 1.714 217.711 -0.0888443 215.504 0.00338848C201.2 0.601118 182.746 4.94142 167.905 26.1053C167.371 26.8667 166.406 27.1948 165.531 26.8807C139.838 17.6592 81.6024 10.1912 41.5963 50.3201C41.2171 50.7005 40.7001 50.9307 40.1642 50.8937C32.9459 50.3954 20 43.4251 20 18.4231C20 12.9231 0.499998 11.4231 0.499998 18.4231C-1.24792 30.3408 0.973424 55.6206 22.6769 65.5767C24.0987 66.2289 24.4659 68.233 23.4358 69.4101C18.7061 74.8147 13.5 85.6227 13.5 105.423C13.5 125.067 18.1943 135.431 19.7381 138.839C19.7925 138.959 19.843 139.071 19.8892 139.174C19.9629 139.338 19.9892 139.509 19.9674 139.687C16.1745 170.639 17.5826 237.423 46.5 237.423C56.4546 237.423 71.9583 231.577 66.575 194.434C66.5296 194.12 66.6303 193.794 66.8518 193.567C68.975 191.394 72.7628 187.106 75.3575 182.926C76.1649 181.626 78.1589 181.413 79.264 182.473ZM203 113.423C208.523 113.423 213 108.946 213 103.423C213 97.9003 208.523 93.4231 203 93.4231C197.477 93.4231 193 97.9003 193 103.423C193 108.946 197.477 113.423 203 113.423Z" fill="#FCA0C5"/>
</svg>
