<svg width="277" height="258" viewBox="0 0 277 258" fill="none" xmlns="http://www.w3.org/2000/svg">
<path fill-rule="evenodd" clip-rule="evenodd" d="M238 258H198V235C198 234.012 197.751 233.158 197.579 232.65C197.381 232.063 197.123 231.481 196.848 230.932C196.295 229.828 195.539 228.599 194.628 227.319C192.801 224.752 190.174 221.736 186.836 218.845C180.183 213.085 170.316 207.5 158 207.5H136.722C134.944 198.534 131.078 187.258 123.176 177.639C113.775 166.195 98.9743 157.5 76.5 157.5C73.7386 157.5 71.5 159.739 71.5 162.5C71.5 165.262 73.7386 167.5 76.5 167.5C96.0258 167.5 107.975 174.889 115.449 183.986C123.094 193.292 126.371 204.796 127.548 213.194L128.152 217.5H158C167.184 217.5 174.817 221.665 180.289 226.405C183.013 228.764 185.105 231.185 186.481 233.118C187.172 234.089 187.639 234.875 187.908 235.412C187.944 235.485 187.975 235.548 188 235.603V258H80.5C50.2922 258 29.0524 237.377 25.7655 226.082C25.5992 225.51 25.0023 225.158 24.4268 225.309C12.2599 228.513 4.76739 220.197 2.49998 215.5C-4.05089 200.086 6.81497 192.406 13.7294 190.225C14.1777 190.084 14.4831 189.651 14.4638 189.182C11.3332 113.374 71.6145 82 103.5 82H156C161.367 81.6646 162.421 78.0238 162.228 75.383C162.167 74.5426 161.503 73.9586 160.664 73.878C129.59 70.8931 16.4044 50.4338 43.4999 12.5001C65.2251 -17.9152 143.998 16.1285 182.075 37.6881C182.916 38.1645 183.949 37.9561 184.607 37.2475C192.512 28.7342 203.316 26.0001 220.5 26.0001C238.5 26.0001 276.5 35.5001 276.5 71.0001C276.5 99.4001 251.5 112.5 239 115.5C235.96 129.009 223.439 145.964 214.197 156.734C212.884 158.264 208.382 166.684 208.146 168.686C207.867 171.061 207.621 174.13 207.5 178C207.281 185 215.962 190.756 225.798 197.277C238.444 205.662 253 215.312 253 230.5C253 252.1 243 257.833 238 258ZM188.107 235.856C188.117 235.886 188.113 235.88 188.102 235.843L188.107 235.856ZM223 77C228.523 77 233 72.5229 233 67C233 61.4772 228.523 57 223 57C217.477 57 213 61.4772 213 67C213 72.5229 217.477 77 223 77Z" fill="#FCA0C5"/>
</svg>
