<svg width="276" height="269" viewBox="0 0 276 269" fill="none" xmlns="http://www.w3.org/2000/svg">
<path fill-rule="evenodd" clip-rule="evenodd" d="M138.307 39.9316C142.072 37.7003 151.132 36.8413 158.846 36.9152C160.697 36.933 162.348 35.7499 162.953 34.0007C167.371 21.2269 178.903 0.369672 197 0.000352988C221.5 -0.499647 245 30.5004 243.5 61.5004C242.391 84.4279 229.515 100.575 221.782 107.097C220.86 107.875 220.73 109.272 221.504 110.199C227.798 117.741 238 135.109 238 156.5H204C202.343 156.5 201 157.843 201 159.5V165C201 166.657 202.343 168 204 168H273C274.657 168 276 169.343 276 171V178.5C276 180.157 274.657 181.5 273 181.5H232V184C232 186.209 230.209 188 228 188H190.5C188.843 188 187.5 189.343 187.5 191V197C187.5 198.657 188.843 200 190.5 200H259.5C261.157 200 262.5 201.343 262.5 203V210C262.5 211.657 261.157 213 259.5 213H216.647C215.621 213 214.677 213.52 214.094 214.364C207.833 223.432 192.15 239.619 171.084 243.897C168.962 244.329 167.267 245.955 166.578 248.009C163.707 256.577 155.27 268.849 137.5 268.5C119.342 268.144 110.401 255.614 107.362 247.34C106.73 245.619 105.404 244.211 103.655 243.659C91.0963 239.699 69.0837 229.714 60.8639 214.707C60.3033 213.683 59.2537 213 58.0867 213H15.5C13.8431 213 12.5 211.657 12.5 210V203C12.5 201.343 13.8431 200 15.5 200H84C85.6569 200 87 198.657 87 197V191C87 189.343 85.6569 188 84 188H45C42.7909 188 41 186.209 41 184V181.5H3C1.34315 181.5 0 180.157 0 178.5V171C0 169.343 1.34315 168 3 168H72.5C74.1569 168 75.5 166.657 75.5 165V159.5C75.5 157.843 74.1569 156.5 72.5 156.5H38C37.5313 145.252 40.0499 121.353 53.2145 110.495C54.3961 109.521 54.3515 107.569 53.0782 106.717C42.3089 99.5183 29.3729 83.8226 31.5 57.5002C35.5 8.00024 67.5 -0.205651 78 0.000352988C86.1903 0.161042 103.944 7.25426 111.668 33.8939C112.19 35.6948 113.831 36.9645 115.706 36.9724C122.807 37.0023 133.227 37.6126 136.744 39.8713C137.206 40.1676 137.835 40.2111 138.307 39.9316ZM168.5 143C175.127 143 180.5 137.628 180.5 131C180.5 124.373 175.127 119 168.5 119C161.873 119 156.5 124.373 156.5 131C156.5 137.628 161.873 143 168.5 143ZM118.5 131C118.5 137.628 113.127 143 106.5 143C99.8726 143 94.5 137.628 94.5 131C94.5 124.373 99.8726 119 106.5 119C113.127 119 118.5 124.373 118.5 131ZM137.5 249C144.127 249 149.5 243.628 149.5 237C149.5 230.373 144.127 225 137.5 225C130.873 225 125.5 230.373 125.5 237C125.5 243.628 130.873 249 137.5 249ZM94.61 43.5894C78.2162 51.0802 67.7323 75.1104 63.7589 88.7233C63.3679 90.0628 61.7762 90.6471 60.7236 89.7311C38.2321 70.1592 57.5553 18.5156 75 19.0001C88.6015 19.378 94.5006 32.7219 95.8152 41.5041C95.9476 42.388 95.4229 43.2179 94.61 43.5894ZM211.741 88.7233C207.768 75.1104 197.284 51.0802 180.89 43.5894C180.077 43.2179 179.552 42.388 179.685 41.5041C180.999 32.7219 186.898 19.378 200.5 19.0001C217.945 18.5156 237.268 70.1592 214.776 89.7311C213.724 90.6471 212.132 90.0628 211.741 88.7233Z" fill="#FCA0C5"/>
</svg>
