<svg width="302" height="262" viewBox="0 0 302 262" fill="none" xmlns="http://www.w3.org/2000/svg">
<path fill-rule="evenodd" clip-rule="evenodd" d="M185.805 249.453L165.72 198.466C149.72 214.066 126.72 204.966 117.22 198.466L96.7076 250.158C94.0241 256.92 87.3345 261.225 80.0678 260.866L70.4559 260.392C60.0699 259.879 52.0256 251.112 52.4058 240.72L54.7199 177.467C16.9164 177.1 9.75874 146.676 15.0156 129.688C15.7304 127.379 14.6713 124.765 12.5826 123.547C0.78073 116.663 -0.683706 102.045 0.219943 94.9666C0.922003 73.2027 15.0245 64.4799 24.5496 62.107C26.5885 61.5991 28.1651 59.8237 28.2528 57.7244C29.4948 28.0159 54.2148 22.5259 69.2361 23.6432C71.0099 23.7751 72.7208 22.8348 73.5229 21.2472C88.4458 -8.28897 111.476 -1.13576 123.556 7.81537C125.142 8.99038 127.33 9.01833 128.919 7.84866C154.874 -11.2483 174.544 10.8203 182.473 26.7889C183.256 28.3651 184.919 29.3115 186.677 29.2188C210.533 27.9601 224.087 45.4542 229.054 56.9334C229.807 58.6747 231.579 59.7898 233.473 59.6664C260.646 57.8954 272.351 76.059 275.72 86.9666L276.061 87.1584C284.206 91.7351 301.22 101.295 301.22 124.466C301.22 142.871 285.387 152.466 277.72 154.966H233.72C232.12 161.766 224.053 172.466 220.22 176.966L231.31 232.776C233.757 245.09 225.878 257.092 213.606 259.741L207.493 261.061C198.397 263.025 189.216 258.111 185.805 249.453ZM202.159 189.679L186.9 192.73C186.287 192.853 185.935 193.503 186.169 194.084L202.768 235.42C204.075 238.673 208.947 237.428 208.531 233.947L203.348 190.541C203.279 189.962 202.731 189.564 202.159 189.679ZM276.305 112.254C270.447 108.085 262.356 100.773 256.922 95.5903C255.496 94.2306 254.772 92.3336 254.13 90.4708C250.968 81.2938 236.496 80.4666 229.22 80.4666C204.22 80.4667 195.22 99.9666 195.22 110.467C195.22 122.147 201.992 128.775 207.743 132.238C210.577 133.944 213.919 134.467 217.227 134.467H270.22C276.847 134.467 282.22 129.094 282.22 122.467V122.244C282.22 118.333 279.492 114.522 276.305 112.254ZM244.72 101.467C244.72 106.989 240.243 111.467 234.72 111.467C229.197 111.467 224.72 106.989 224.72 101.467C224.72 95.9437 229.197 91.4666 234.72 91.4666C240.243 91.4666 244.72 95.9437 244.72 101.467ZM178.416 94.2502L176.757 96.5541C174.583 99.574 170.806 101.344 167.422 99.7957C158.943 95.9175 155.747 87.0631 154.908 81.5569C154.766 80.6294 155.359 79.7631 156.267 79.5296C166.409 76.923 173.632 80.2072 178.027 84.0254C181.014 86.6213 180.728 91.0382 178.416 94.2502ZM75.6467 203.467H94.0543C94.809 203.467 95.2917 204.271 94.937 204.937L75.7029 241.05C74.685 242.961 71.7792 242.117 71.9434 239.958L74.6496 204.391C74.6893 203.869 75.1239 203.467 75.6467 203.467Z" fill="#FCA0C5"/>
</svg>
