<svg width="291" height="250" viewBox="0 0 291 250" fill="none" xmlns="http://www.w3.org/2000/svg">
<path fill-rule="evenodd" clip-rule="evenodd" d="M121.804 113.048V129.048C121.804 130.153 122.729 131.05 123.834 131.027C179.296 129.856 191.304 80.7015 191.304 56C191.304 31 192.804 0 228.304 0C252.087 0 258.908 19.1383 259.718 29.4625C259.807 30.5992 260.759 31.4996 261.899 31.5262C274.057 31.8101 283.767 39.3105 289.196 45.0385C291.727 47.7091 291.013 51.8125 288.062 54.0099L265.118 71.0928C267.193 73.8469 268.048 76.8751 267.812 79.4337C267.716 80.4722 268.184 81.5546 269.003 82.1992C273.394 85.6507 278.28 95.3979 276.304 102.107C273.408 111.941 265.196 110.892 260.847 108.565C260.438 108.347 260.092 108.056 259.804 107.714V147.549C259.804 165.855 250.372 191.455 230.561 212.428C231.303 201.308 230.452 188.695 226.481 177.232C220.903 161.13 209.113 147.312 187.677 143.573C184.93 143.093 182.331 145.036 181.873 147.912C181.415 150.788 183.271 153.508 186.019 153.988C203.32 157.006 212.462 167.738 216.997 180.831C221.564 194.014 221.39 210.791 219.33 222.847C200.097 238.452 173.762 249.549 139.804 249.549C96.6597 249.549 67.5905 230.304 49.9022 207.67C40.5444 215.379 28.7122 218.405 16 207.416C-5.59096 188.753 11.843 171.178 26.0423 162.96C26.9616 162.428 26.5822 160.851 25.5222 160.783C8.14041 159.672 -7.15256e-07 151.579 0 134.916C-1.19209e-07 119.383 14.9632 112.563 25.3595 112.336C26.4198 112.313 27.366 111.543 27.8037 110.576V108.327C25.3369 101.649 25.2115 93.143 31.6415 85.5631C34.6318 81.0845 39.0318 78.3024 43.6044 76.734C46.8636 75.324 50.0243 74.8576 53.0143 75.0594C53.2803 75.0526 53.5435 75.0492 53.8037 75.0492C73.4896 75.0492 77.9837 91.1011 79.2225 99.114C79.4868 100.824 80.5197 100.86 81.6411 99.542C84.1609 96.5809 89.641 93.5481 100.304 93.5481C116.804 93.5481 121.804 107.049 121.804 113.048ZM235.804 41.5C235.804 47.0228 231.326 51.5 225.804 51.5C220.281 51.5 215.804 47.0228 215.804 41.5C215.804 35.9772 220.281 31.5 225.804 31.5C231.326 31.5 235.804 35.9772 235.804 41.5Z" fill="#FCA0C5"/>
</svg>
