<svg width="96" height="63" viewBox="0 0 96 63" fill="none" xmlns="http://www.w3.org/2000/svg">
<path fill-rule="evenodd" clip-rule="evenodd" d="M76.9776 26C76.9925 25.6683 77 25.3349 77 25C77 11.1929 64.2401 0 48.5 0C32.7599 0 20 11.1929 20 25C20 25.3349 20.0075 25.6683 20.0224 26H18.5H18V26.0066C8.01388 26.2716 0 34.4499 0 44.5C0 54.5501 8.01388 62.7284 18 62.9934V63H18.5H77V62.9934C77.1661 62.9978 77.3328 63 77.5 63C87.7173 63 96 54.7173 96 44.5C96 34.2827 87.7173 26 77.5 26C77.3328 26 77.1661 26.0022 77 26.0066V26H76.9776Z" fill="#FCA0C5"/>
</svg>
