<svg width="82" height="82" viewBox="0 0 82 82" fill="none" xmlns="http://www.w3.org/2000/svg">
<path fill-rule="evenodd" clip-rule="evenodd" d="M46 62.1665V78.1665C46 79.271 46.8954 80.1665 48 80.1665H60.5C61.6046 80.1665 62.5 79.271 62.5 78.1665V62.1665H80.5881C81.3954 62.1665 81.8699 61.2592 81.4094 60.5961L71.0906 45.7368C70.6301 45.0737 71.1046 44.1665 71.9119 44.1665H76.1018C76.9064 44.1665 77.3815 43.2645 76.9265 42.6009L67.0735 28.232C66.6185 27.5684 67.0936 26.6664 67.8982 26.6664H72.5285C73.3472 26.6664 73.819 25.7363 73.3354 25.0757L55.5756 0.818525C54.7879 -0.257424 53.1877 -0.275715 52.3756 0.781948L33.7355 25.0574C33.2305 25.7152 33.6994 26.6664 34.5287 26.6664H40.0114C40.8334 26.6664 41.3043 27.603 40.8142 28.2628L30.1858 42.5701C29.6957 43.2299 30.1667 44.1665 30.9886 44.1665H36.5881C37.3954 44.1665 37.8699 45.0737 37.4094 45.7368L27.0906 60.5961C26.6301 61.2592 27.1046 62.1665 27.9119 62.1665H46ZM37.8341 10.1664C36.8819 4.49102 31.946 0.16645 26 0.16645C19.514 0.16645 14.2298 5.31224 14.0073 11.744C8.22057 13.4628 4 18.8217 4 25.1664C4 28.2609 5.00397 31.1209 6.70395 33.4384C2.6728 36.0139 0 40.528 0 45.6665C0 53.6746 6.49187 60.1665 14.5 60.1665C15.8875 60.1665 17.2294 59.9716 18.5 59.6077V79.1665C18.5 80.271 19.3954 81.1665 20.5 81.1665H32C33.1046 81.1665 34 80.271 34 79.1665V63.1665H24.9119C24.1046 63.1665 23.6301 62.2592 24.0906 61.5961L34.4094 46.7368C34.8699 46.0737 34.3954 45.1665 33.5881 45.1665H27.9886C27.1667 45.1665 26.6957 44.2299 27.1858 43.5701L37.8142 29.2628C38.3043 28.603 37.8334 27.6664 37.0114 27.6664H31.5287C30.6994 27.6664 30.2305 26.7152 30.7355 26.0574L42.9375 10.1664H37.8341Z" fill="#FCA0C5"/>
</svg>
