<svg width="85" height="88" viewBox="0 0 85 88" fill="none" xmlns="http://www.w3.org/2000/svg">
<path fill-rule="evenodd" clip-rule="evenodd" d="M59.0428 32.1472L62.814 36.2714C62.8556 36.3169 62.9 36.3576 62.9495 36.3943C67.1598 39.5138 75.4934 41.301 82.3068 34.9872C85.4632 32.0623 85.4871 27.3979 82.9742 23.9047C81.1432 21.3594 78.717 18.3166 75.9448 15.2453L78.514 12.6761C79.4903 11.6998 79.4903 10.1169 78.514 9.14054C77.5377 8.16423 75.9548 8.16423 74.9784 9.14054L72.5053 11.6137C68.0159 7.10454 62.9751 2.94604 58.2124 0.699451C55.404 -0.625257 52.1081 -0.0797621 50.285 2.43384C46.7793 7.26742 43.8499 16.0575 49.4644 21.6721L55.6654 28.4536L51.8118 32.3072C46.2461 26.6073 41.649 20.0222 40.5206 15.0518C40.3683 14.3808 39.6505 13.9856 39.0695 14.3542C34.3312 17.3604 24.9553 26.8329 31.7943 33.6719L41.2545 42.8645L37.8636 46.2554C32.5394 40.686 28.1977 34.3625 27.1056 29.5518C26.9533 28.8808 26.2355 28.4856 25.6545 28.8542C20.9161 31.8604 11.5403 41.3329 18.3793 48.1719L27.2892 56.8298L23.9212 60.1978C18.8394 54.7675 14.7464 48.7027 13.6906 44.0518C13.5382 43.3808 12.8204 42.9855 12.2394 43.3542C7.50109 46.3604 -1.87478 55.8329 4.96422 62.6719L13.3239 70.7951L0.732233 83.3867C-0.244078 84.3631 -0.244078 85.946 0.732233 86.9223C1.70854 87.8986 3.29145 87.8986 4.26777 86.9223L16.9102 74.2799L22.5733 79.7828C22.6116 79.82 22.65 79.8523 22.6941 79.8826C25.9691 82.127 36.4293 85.6965 43.5911 75.0684C44.0095 74.4474 43.5798 73.6067 42.8487 73.4448C38.4638 72.4733 32.7141 68.6137 27.4618 63.7282L30.8755 60.3146L35.9883 65.2828C36.0266 65.32 36.0651 65.3523 36.1092 65.3826C39.3842 67.627 49.8443 71.1965 57.0061 60.5684C57.4246 59.9474 56.9948 59.1067 56.2637 58.9448C52.0356 58.008 46.5385 54.386 41.4419 49.7481L44.8408 46.3493L49.4033 50.7828C49.4417 50.82 49.4801 50.8523 49.5242 50.8826C52.7992 53.127 63.2594 56.6965 70.4212 46.0684C70.8396 45.4474 70.4099 44.6067 69.6788 44.4448C65.6081 43.5429 60.3613 40.1521 55.428 35.762L59.0428 32.1472Z" fill="#FCA0C5"/>
</svg>
