<svg width="76" height="75" viewBox="0 0 76 75" fill="none" xmlns="http://www.w3.org/2000/svg">
<path d="M48 58C48 67.3888 40.3888 75 31 75C21.6112 75 14 67.3888 14 58C14 48.6112 26.5 27 31 27C35.5 27 48 48.6112 48 58Z" fill="#FCA0C5"/>
<path d="M76 30.8333C76 38.6574 69.732 45 62 45C54.268 45 48 38.6574 48 30.8333C48 23.0093 58.2941 5 62 5C65.7059 5 76 23.0093 76 30.8333Z" fill="#FCA0C5"/>
<path d="M22 20.0208C22 26.0845 17.0751 31 11 31C4.92487 31 0 26.0845 0 20.0208C0 13.9572 8.08824 0 11 0C13.9118 0 22 13.9572 22 20.0208Z" fill="#FCA0C5"/>
</svg>
