<svg width="52" height="64" viewBox="0 0 52 64" fill="none" xmlns="http://www.w3.org/2000/svg">
<path fill-rule="evenodd" clip-rule="evenodd" d="M0 8C0 3.58172 3.58172 0 8 0H43.2C47.6183 0 51.2 3.58172 51.2 8V56C51.2 60.4183 47.6183 64 43.2 64H8.00001C3.58173 64 0 60.4183 0 56V8ZM9.81332 15.7333C9.81332 13.5242 11.6042 11.7333 13.8133 11.7333H37.3867C39.5958 11.7333 41.3867 13.5242 41.3867 15.7333V22.88C41.3867 25.0891 39.5958 26.88 37.3867 26.88H13.8133C11.6042 26.88 9.81332 25.0891 9.81332 22.88V15.7333ZM33.7067 48.3198C33.7067 50.4995 35.4737 52.2665 37.6533 52.2665C39.833 52.2665 41.6 50.4995 41.6 48.3198V37.2265C41.6 35.0468 39.833 33.2798 37.6533 33.2798C35.4737 33.2798 33.7067 35.0468 33.7067 37.2265V48.3198ZM25.7066 41.1734C23.5269 41.1734 21.7599 39.4064 21.7599 37.2267C21.7599 35.0471 23.5269 33.2801 25.7066 33.2801C27.8863 33.2801 29.6533 35.0471 29.6533 37.2267C29.6533 39.4064 27.8863 41.1734 25.7066 41.1734ZM9.81333 37.2267C9.81333 39.4064 11.5803 41.1734 13.76 41.1734C15.9397 41.1734 17.7067 39.4064 17.7067 37.2267C17.7067 35.0471 15.9397 33.2801 13.76 33.2801C11.5803 33.2801 9.81333 35.0471 9.81333 37.2267ZM25.7066 52.2665C23.5269 52.2665 21.7599 50.4995 21.7599 48.3198C21.7599 46.1402 23.5269 44.3732 25.7066 44.3732C27.8863 44.3732 29.6533 46.1402 29.6533 48.3198C29.6533 50.4995 27.8863 52.2665 25.7066 52.2665ZM9.81333 48.3198C9.81333 50.4995 11.5803 52.2665 13.76 52.2665C15.9397 52.2665 17.7067 50.4995 17.7067 48.3198C17.7067 46.1402 15.9397 44.3732 13.76 44.3732C11.5803 44.3732 9.81333 46.1402 9.81333 48.3198Z" fill="#FCA0C5"/>
</svg>
