<svg width="64" height="64" viewBox="0 0 64 64" fill="none" xmlns="http://www.w3.org/2000/svg">
<path fill-rule="evenodd" clip-rule="evenodd" d="M32 64C49.6731 64 64 49.6731 64 32C64 14.3269 49.6731 0 32 0C14.3269 0 0 14.3269 0 32C0 49.6731 14.3269 64 32 64ZM24.8029 21.4075C25.723 22.5477 26.24 24.0942 26.24 25.7067H21.3333L16.4267 25.7067C16.4267 24.0942 16.9436 22.5477 17.8638 21.4075C18.784 20.2673 20.032 19.6267 21.3333 19.6267C22.6347 19.6267 23.8827 20.2673 24.8029 21.4075ZM46.9334 32.4267C46.9334 36.8399 45.36 41.0723 42.5595 44.1929C39.7589 47.3135 35.9606 49.0667 32 49.0667C28.0395 49.0667 24.2411 47.3135 21.4406 44.1929C18.64 41.0723 17.0667 36.8399 17.0667 32.4267L32 32.4267H46.9334ZM46.5629 21.4075C47.4831 22.5477 48 24.0942 48 25.7067H43.0934L38.1867 25.7067C38.1867 24.0942 38.7037 22.5477 39.6238 21.4075C40.544 20.2673 41.792 19.6267 43.0934 19.6267C44.3947 19.6267 45.6427 20.2673 46.5629 21.4075Z" fill="#FCA0C5"/>
</svg>
