<svg width="72" height="64" viewBox="0 0 72 64" fill="none" xmlns="http://www.w3.org/2000/svg">
<path fill-rule="evenodd" clip-rule="evenodd" d="M8.83492 37.2616C7.18082 40.4404 4.92933 43.9291 1.77898 43.0473C-0.180746 42.4988 0.55545 38.4872 1.80871 34.5673C2.71148 31.7437 2.4411 28.6968 1.29077 25.9647C-0.15193 22.5382 -0.868166 18.8388 1.77899 17.383C4.39088 15.9465 7.29687 19.7581 9.02361 23.5834C9.55094 24.7516 11.1902 25.074 12.0486 24.1222C15.5364 20.2545 20.8493 15.1369 24.723 13.8157C25.5213 13.5435 26.1835 12.8459 26.1835 12.0025V6.53547C26.1835 5.67299 26.8587 4.96289 27.7211 4.97752C37.654 5.14598 57.3726 9.83354 70.496 27.5361C71.9323 29.4736 71.9749 32.0977 70.5803 34.0655C66.4147 39.943 58.9155 48.2346 50.714 50.5241C50.632 50.547 50.5614 50.5925 50.508 50.6588C48.3795 53.304 44.0209 57.6624 38.4595 58.9184C35.42 59.6049 33.1024 56.7947 33.1024 53.6787V52.3386C33.1024 51.5907 32.5874 50.9475 31.8701 50.7356C26.865 49.2573 17.7678 44.8086 11.6939 37.041C10.9349 36.0704 9.40367 36.1687 8.83492 37.2616ZM44.2641 23.3581C45.1484 22.4781 46.5821 22.4781 47.4663 23.3581L50.9538 26.8288L54.4411 23.3582C55.3254 22.4782 56.7591 22.4782 57.6434 23.3582C58.5276 24.2382 58.5276 25.665 57.6434 26.5451L54.156 30.0156L57.6434 33.4862C58.5277 34.3663 58.5277 35.7931 57.6434 36.6731C56.7591 37.5531 55.3254 37.5531 54.4411 36.6731L50.9538 33.2025L47.4663 36.6732C46.582 37.5532 45.1483 37.5532 44.2641 36.6732C43.3798 35.7932 43.3798 34.3663 44.2641 33.4863L47.7515 30.0156L44.2641 26.545C43.3798 25.665 43.3798 24.2382 44.2641 23.3581Z" fill="#FCA0C5"/>
</svg>
