<svg width="29" height="32" viewBox="0 0 29 32" fill="none" xmlns="http://www.w3.org/2000/svg">
<path d="M13.6618 28.7576C23.5947 36.5554 37.2202 16.961 21.9467 0.176691C21.8484 0.0686471 21.6901 0.0171467 21.5465 0.0438422C-7.85301 5.5084 -0.830667 24.9545 6.05223 26.2717C6.1498 26.2904 6.17714 26.4221 6.09431 26.4769L5.98688 26.548C2.93904 28.5659 0.909785 29.9095 1.63833 31.2031C4.1945 35.7421 17.8058 19.8678 19.5006 9.44997C19.5211 9.32414 19.7164 9.32652 19.7273 9.45354C20.4701 18.1516 16.1847 25.2741 13.6112 28.135C13.4472 28.3174 13.4689 28.6061 13.6618 28.7576Z" fill="#FCA0C5"/>
</svg>
